<?xml version="1.0" standalone="no"?>
<!DOCTYPE svg PUBLIC "-//W3C//DTD SVG 20010904//EN"
 "http://www.w3.org/TR/2001/REC-SVG-20010904/DTD/svg10.dtd">
<svg version="1.0" xmlns="http://www.w3.org/2000/svg"
 width="2283.000000pt" height="2283.000000pt" viewBox="0 0 2283.000000 2283.000000"
 preserveAspectRatio="xMidYMid meet">
<metadata>
Created by potrace 1.14, written by Peter Selinger 2001-2017
</metadata>
<g transform="translate(0.000000,2283.000000) scale(0.100000,-0.100000)"
fill="#000000" stroke="none">
<path d="M11018 22825 c-2 -2 -68 -6 -148 -9 -145 -7 -200 -10 -340 -21 -124
-10 -173 -14 -225 -20 -27 -2 -77 -7 -110 -11 -33 -3 -71 -7 -85 -9 -14 -2
-70 -9 -125 -15 -55 -6 -140 -18 -190 -25 -132 -20 -346 -54 -375 -60 -13 -2
-42 -7 -65 -11 -22 -3 -60 -10 -85 -16 -43 -9 -61 -13 -112 -22 -55 -10 -272
-57 -372 -81 -60 -15 -116 -28 -125 -30 -15 -3 -41 -10 -264 -69 -135 -36
-367 -106 -522 -157 -71 -24 -132 -44 -135 -44 -3 -1 -12 -4 -20 -8 -8 -3 -62
-22 -120 -42 -178 -63 -210 -75 -375 -140 -182 -71 -406 -167 -544 -231 -51
-24 -95 -44 -97 -44 -13 0 -535 -266 -649 -330 -22 -12 -85 -48 -140 -78 -248
-138 -646 -389 -905 -571 -80 -56 -349 -251 -370 -268 -15 -12 -108 -85 -176
-138 -48 -38 -250 -202 -284 -231 -389 -335 -716 -647 -1005 -960 -414 -449
-760 -882 -1080 -1354 -95 -139 -295 -448 -295 -455 0 -2 -22 -39 -48 -82
-142 -229 -284 -488 -446 -818 -178 -360 -228 -472 -373 -830 -78 -193 -247
-662 -268 -745 -2 -8 -18 -60 -35 -115 -52 -166 -160 -554 -175 -630 -3 -11
-16 -65 -29 -120 -14 -55 -27 -113 -30 -130 -3 -16 -8 -39 -10 -50 -21 -94
-37 -170 -41 -197 -3 -18 -8 -40 -10 -48 -7 -25 -67 -373 -80 -460 -3 -25 -8
-58 -11 -75 -2 -16 -6 -43 -8 -60 -6 -44 -26 -195 -31 -230 -4 -35 -14 -121
-19 -185 -3 -25 -7 -76 -11 -115 -3 -38 -8 -83 -10 -100 -2 -16 -7 -75 -10
-130 -4 -55 -8 -120 -10 -145 -24 -331 -24 -1052 0 -1375 2 -33 6 -94 9 -135
6 -83 14 -188 21 -265 4 -52 22 -214 30 -275 2 -19 11 -89 20 -155 8 -66 17
-131 19 -145 10 -56 28 -177 31 -205 3 -25 16 -95 71 -385 2 -14 11 -56 20
-95 8 -38 16 -79 18 -90 49 -250 205 -820 311 -1140 94 -282 263 -730 338
-896 14 -30 47 -106 75 -169 74 -171 306 -650 332 -685 4 -5 30 -53 57 -105
28 -52 61 -113 73 -135 13 -22 34 -60 48 -85 70 -126 259 -434 368 -599 16
-24 34 -51 39 -60 12 -20 110 -162 172 -251 72 -104 193 -270 240 -330 24 -30
47 -59 51 -65 19 -26 237 -301 242 -305 3 -3 28 -32 55 -65 27 -33 65 -78 85
-100 19 -23 62 -72 95 -110 33 -38 71 -81 85 -96 14 -15 63 -69 110 -120 122
-134 493 -505 640 -639 264 -241 594 -519 815 -684 241 -180 267 -199 400
-292 204 -142 343 -234 355 -234 5 0 10 -3 10 -8 0 -4 9 -12 19 -17 11 -6 83
-49 160 -97 154 -96 428 -254 591 -342 107 -58 544 -275 635 -315 28 -13 68
-31 90 -42 103 -47 602 -253 640 -263 6 -2 17 -6 25 -9 74 -31 423 -149 620
-211 284 -89 739 -208 980 -256 25 -5 56 -12 70 -15 14 -3 63 -12 110 -21 47
-9 94 -18 105 -20 11 -2 44 -9 73 -15 29 -6 66 -12 82 -15 39 -5 66 -10 180
-28 52 -8 115 -18 140 -21 25 -3 56 -8 70 -10 72 -11 341 -42 430 -50 30 -3
73 -7 95 -10 36 -4 83 -7 260 -20 373 -27 1253 -27 1560 0 22 2 85 7 140 10
55 4 106 8 115 10 8 1 51 6 95 9 44 4 97 9 118 11 59 8 142 18 235 30 23 3 61
7 85 10 23 3 53 8 67 10 14 2 45 7 70 10 25 4 110 17 190 31 184 31 191 32
275 49 39 8 84 16 100 19 17 3 120 26 230 51 110 25 211 47 225 50 14 3 50 13
80 21 52 15 67 19 115 29 11 3 108 30 215 61 107 31 209 59 225 64 48 13 380
124 505 169 557 201 1173 481 1695 774 70 39 357 208 463 272 296 181 832 560
1097 776 47 39 332 276 355 296 14 12 36 31 49 43 239 204 694 653 931 916 76
85 178 201 201 228 13 16 29 34 34 40 126 134 595 747 726 948 13 20 60 89
103 155 43 65 95 143 114 173 19 30 42 66 51 80 10 14 39 62 67 108 27 46 56
95 65 110 127 207 457 835 556 1057 17 39 44 97 59 130 89 199 272 657 325
815 10 30 41 123 69 205 28 83 62 186 75 230 13 44 40 134 60 200 19 66 37
129 40 140 2 11 25 97 50 190 43 165 118 488 131 570 3 22 7 42 9 45 3 4 20
98 50 265 19 111 35 206 40 245 3 25 8 56 10 70 3 14 7 45 10 70 3 25 7 54 9
65 2 11 7 49 11 85 4 36 9 73 10 82 2 9 6 49 10 90 3 40 8 80 10 88 2 8 7 58
10 110 4 52 8 102 10 110 3 14 13 152 20 270 19 303 24 859 11 1140 -13 288
-29 535 -41 630 -3 19 -7 59 -10 88 -12 117 -16 161 -26 237 -16 130 -19 150
-34 255 -15 101 -53 334 -60 370 -3 14 -9 50 -15 80 -6 30 -12 66 -15 80 -3
14 -7 39 -10 55 -6 37 -33 157 -45 205 -5 19 -12 49 -14 66 -3 18 -17 78 -31
135 -14 57 -28 115 -31 129 -2 14 -32 122 -65 240 -33 118 -66 238 -74 266
-18 66 -174 534 -213 639 -16 44 -43 117 -60 161 -39 104 -166 412 -199 484
-14 30 -34 75 -45 100 -39 91 -53 120 -189 395 -149 302 -172 345 -369 690
-60 106 -94 160 -102 163 -4 2 -8 8 -8 13 0 21 -269 434 -434 664 -150 211
-445 598 -476 625 -3 3 -15 17 -26 32 -32 41 -302 354 -344 399 -8 8 -62 67
-120 129 -269 290 -679 684 -930 891 -36 30 -69 59 -75 65 -8 9 -387 312 -440
352 -5 4 -32 24 -60 45 -27 20 -54 40 -60 45 -60 48 -457 324 -575 399 -216
138 -642 393 -656 393 -2 0 -21 11 -42 23 -71 45 -660 347 -676 347 -3 0 -42
18 -88 39 -151 71 -362 162 -528 226 -177 69 -355 136 -415 156 -33 11 -69 24
-80 29 -49 22 -486 157 -680 210 -393 107 -775 191 -1155 254 -22 4 -82 13
-205 32 -16 3 -41 7 -55 9 -14 2 -49 7 -79 10 -30 4 -61 8 -70 10 -16 2 -99
12 -176 21 -121 13 -143 15 -175 19 -19 2 -69 7 -110 10 -41 3 -95 8 -120 10
-25 2 -92 7 -150 11 -58 4 -130 8 -160 10 -66 4 -978 12 -982 9z"/>
</g>
</svg>
